<svg width="600" height="128" viewBox="0 0 600 128" fill="none" xmlns="http://www.w3.org/2000/svg">
  <defs>
    <linearGradient id="bLg1w" x1="0" y1="0" x2="1" y2="1">
      <stop offset="0%" stop-color="#86efac"/>
      <stop offset="100%" stop-color="#22c55e"/>
    </linearGradient>
    <linearGradient id="bLg2w" x1="0" y1="0" x2="1" y2="1">
      <stop offset="0%" stop-color="#4ade80"/>
      <stop offset="100%" stop-color="#15803d"/>
    </linearGradient>
  </defs>

  <g transform="translate(8, 18) scale(2.9)">
    <path d="M5 2 C12 0 22 2 22 8 C22 14 12 15 5 14 Z" fill="url(#bLg1w)"/>
    <path d="M5 14 C14 12 26 15 26 21 C26 27 14 31 5 30 Z" fill="url(#bLg2w)"/>
    <path d="M5 4 C2 1 0 0 1 3 C2 5 4 5 5 4 Z" fill="url(#bLg1w)"/>
    <line x1="5" y1="1" x2="5" y2="30" stroke="#4ade80" stroke-width="2.2" stroke-linecap="round"/>
  </g>

  <text x="110" y="82"
        font-family="-apple-system, BlinkMacSystemFont, 'Segoe UI', system-ui, sans-serif"
        font-weight="700"
        font-size="64"
        letter-spacing="-1.5"
        fill="#ffffff">Bahçıvan</text>
</svg>
